<svg xmlns="http://www.w3.org/2000/svg" xmlns:xlink="http://www.w3.org/1999/xlink" viewBox="0 0 250.91 61.72"><defs><style>.i{fill:url(#h);}.i,.j{opacity:.5;}.j{fill:url(#e);}.k{fill:url(#f);}.k,.l,.m{opacity:.8;}.n{fill:#f1f0f0;}.o{fill:#f15b22;}.l{fill:url(#g);}.p{fill:#f79339;}.q{fill:none;}.m{fill:url(#d);}.r{fill:#fdc591;}</style><linearGradient id="d" x1="12.21" y1="12.2" x2="3.78" y2="16.41" gradientTransform="matrix(1, 0, 0, 1, 0, 0)" gradientUnits="userSpaceOnUse"><stop offset="0" stop-color="#f79339"></stop><stop offset="1" stop-color="#fdc591"></stop></linearGradient><linearGradient id="e" x1="20.4" y1="40.1" x2="14.35" y2="48.53" gradientTransform="matrix(1, 0, 0, 1, 0, 0)" gradientUnits="userSpaceOnUse"><stop offset="0" stop-color="#ee5b23"></stop><stop offset="1" stop-color="#f79339"></stop></linearGradient><linearGradient id="f" x1="46.48" y1="15.02" x2="55.94" y2="15.02" xlink:href="#d"></linearGradient><linearGradient id="g" x1="32.81" y1="45.09" x2="58.7" y2="45.09" gradientTransform="matrix(1, 0, 0, 1, 0, 0)" gradientUnits="userSpaceOnUse"><stop offset="0" stop-color="#ee5b23" stop-opacity=".5"></stop><stop offset="1" stop-color="#f79339"></stop></linearGradient><linearGradient id="h" x1="38.31" y1="40.72" x2="44.36" y2="48.6" xlink:href="#e"></linearGradient></defs><g id="a"></g><g id="b"><g id="c"><g><g><g><g><path class="r" d="M4.81,.82c-1.49,3.28-2.01,9.68-2.01,13.25,0,6.47,1.3,10.89,5.52,15.15,3.97-5.94,3.9-12.2,3.9-12.2,0-6.67-1.78-13.49-7.41-16.19Z"></path><path class="m" d="M4.81,.82c-1.49,3.28-2.01,9.68-2.01,13.25,0,6.47,1.3,10.89,5.52,15.15,3.97-5.94,3.9-12.2,3.9-12.2,0-6.67-1.78-13.49-7.41-16.19Z"></path><g><path class="q" d="M18.97,38.94c-.27-.35-.55-.7-.84-1.04,.31,.37,.62,.76,.91,1.15-.03-.03-.05-.07-.08-.11Z"></path><polygon class="q" points="25.3 55.49 25.38 56.43 25.78 60.79 25.38 56.43 25.3 55.49"></polygon><path class="p" d="M25.3,55.49l-.1-1.05c-.5-5.39-2.51-10.51-5.74-14.85-.43-.57-.86-1.14-1.32-1.69l-.02-.02h0c-2.22-2.41-9.79-8.67-9.79-8.67C5.83,32.15-.06,39.44,0,43.57l.14,.17c3.2,.76,7.74,1.92,10.36,2.93,5.39,2.07,11.48,4.34,13.68,9.96,.84,2.15,1.6,4.17,1.6,4.17l-.4-4.36-.09-.94Z"></path><path class="j" d="M25.3,55.49l-.1-1.05c-.5-5.39-2.51-10.51-5.74-14.85-.43-.57-.86-1.14-1.32-1.69l-.02-.02h0c-2.22-2.41-9.79-8.67-9.79-8.67C5.83,32.15-.06,39.44,0,43.57l.14,.17c3.2,.76,7.74,1.92,10.36,2.93,5.39,2.07,11.48,4.34,13.68,9.96,.84,2.15,1.6,4.17,1.6,4.17l-.4-4.36-.09-.94Z"></path></g></g><g><path class="r" d="M53.89,.82c1.49,3.28,2.05,9.68,2.05,13.25,0,6.47-1.34,10.89-5.57,15.15-3.97-5.94-3.9-12.2-3.9-12.2,0-6.67,1.78-13.49,7.41-16.19Z"></path><path class="k" d="M53.89,.82c1.49,3.28,2.05,9.68,2.05,13.25,0,6.47-1.34,10.89-5.57,15.15-3.97-5.94-3.9-12.2-3.9-12.2,0-6.67,1.78-13.49,7.41-16.19Z"></path><g><path class="q" d="M39.73,38.94c.27-.35,.55-.7,.84-1.04-.31,.37-.62,.76-.91,1.15,.03-.03,.05-.07,.08-.11Z"></path><polygon class="q" points="33.16 55.81 33.07 56.75 32.81 60.95 33.07 56.75 33.16 55.81"></polygon></g></g></g><g><path class="q" d="M39.73,38.94c.27-.35,.55-.7,.84-1.04-.31,.37-.62,.76-.91,1.15,.03-.03,.05-.07,.08-.11Z"></path><polygon class="q" points="33.41 55.49 33.32 56.43 32.81 60.95 33.32 56.43 33.41 55.49"></polygon><g><path class="q" d="M19.95,40.26c.89,1.22,1.72,2.48,2.46,3.79-.74-1.31-1.57-2.56-2.46-3.79Z"></path><path class="p" d="M50.39,29.23c-.28,.23-7.59,6.29-9.77,8.64h0l-.02,.02c-.29,.34-.56,.69-.84,1.04-.03,.03-.05,.07-.08,.11-.48,.63-.94,1.27-1.4,1.92-2.68,4.06-4.32,8.73-4.76,13.57l-.09,.96-.09,.94-.56,4.52s1.24-2.41,2.19-4.51c2.26-5.01,6.66-8.37,12.28-10.44,3.18-1.17,8.1-1.83,11.28-2.27,.06-.07,.09-.1,.15-.17,.04-4.12-5.81-11.37-8.31-14.32Z"></path><path class="l" d="M50.39,29.23c-.28,.23-7.59,6.29-9.77,8.64h0l-.02,.02c-.29,.34-.56,.69-.84,1.04-.03,.03-.05,.07-.08,.11-.48,.63-.94,1.27-1.4,1.92-2.68,4.06-4.32,8.73-4.76,13.57l-.09,.96-.09,.94-.56,4.52s1.24-2.41,2.19-4.51c2.26-5.01,6.66-8.37,12.28-10.44,3.18-1.17,8.1-1.83,11.28-2.27,.06-.07,.09-.1,.15-.17,.04-4.12-5.81-11.37-8.31-14.32Z"></path><path class="i" d="M50.39,29.23c-.28,.23-7.59,6.29-9.77,8.64h0l-.02,.02c-.29,.34-.56,.69-.84,1.04-.03,.03-.05,.07-.08,.11-.48,.63-.94,1.27-1.4,1.92-2.68,4.06-4.32,8.73-4.76,13.57l-.09,.96-.09,.94-.56,4.52s1.24-2.41,2.19-4.51c2.26-5.01,6.66-8.37,12.28-10.44,3.18-1.17,8.1-1.83,11.28-2.27,.06-.07,.09-.1,.15-.17,.04-4.12-5.81-11.37-8.31-14.32Z"></path></g></g></g><path class="o" d="M53.94,.82c-.13-.28-.25-.57-.38-.82-7.93,2.66-14.06,9.19-16.26,17.32-.02,.08-.09,.14-.18,.13-.71-.1-3.62-.45-7.74-.46-4.12,.01-7.03,.36-7.74,.46-.09,.01-.16-.04-.18-.13C19.25,9.19,13.13,2.66,5.19,0c-.13,.25-.25,.54-.38,.82,5.63,2.7,7.41,9.52,7.41,16.19,0,0,.07,6.26-3.9,12.2,0,0,7.57,6.26,9.79,8.67h0l.02,.02c.29,.34,.56,.69,.84,1.04,.03,.03,.05,.07,.08,.11,3.38,4.44,5.61,9.52,6.12,15.08l.07,.73,.06,.64,.09,.94,.4,4.36s1.23,.86,3.59,.93c2.36-.07,3.43-.77,3.43-.77l.56-4.52,.09-.94,.09-.96c.44-4.85,2.08-9.51,4.76-13.57,.45-.65,.92-1.29,1.4-1.92,.03-.03,.05-.07,.08-.11,.27-.35,.55-.7,.84-1.04l.02-.02h0c2.18-2.36,9.49-8.42,9.77-8.64l.03-.02c-3.97-5.94-3.9-12.2-3.9-12.2,0-6.67,1.78-13.49,7.41-16.19ZM19.95,40.26c.89,1.22,1.72,2.48,2.46,3.79-.74-1.31-1.57-2.56-2.46-3.79Z"></path></g><g><g><path class="n" d="M75.55,12.67h10.22c11.04,0,16.71,5,16.71,14.76s-4.96,14.72-15.47,14.72h-11.46V12.67Zm11.08,25.52c7.03,0,10.34-3.47,10.34-10.75s-3.72-10.75-11-10.75h-5.25v21.46c1.78,0,4.13,.04,5.91,.04Z"></path><path class="n" d="M117.73,12.67h5.63l12.24,29.49h-5.63l-2.4-5.91-14.39,.08c-.87,2.15-1.65,4.13-2.32,5.83h-5.62l12.49-29.49Zm8.23,19.68l-5.54-13.56c-1.57,3.76-3.64,8.77-5.62,13.56h11.17Z"></path><path class="n" d="M136.51,12.67h24.98v4.22h-9.92v25.27h-5.13V16.88h-9.92v-4.22Z"></path><path class="n" d="M174.89,12.67h5.63l12.24,29.49h-5.63l-2.4-5.91-14.39,.08c-.87,2.15-1.65,4.13-2.32,5.83h-5.62l12.49-29.49Zm8.23,19.68l-5.54-13.56c-1.57,3.76-3.64,8.77-5.62,13.56h11.17Z"></path><path class="n" d="M208.72,12.67h5.17v29.49h-5.17V12.67Z"></path></g><path class="n" d="M246.99,36.09c.64-.94,1.18-1.97,1.6-3.06,.66-1.67,1.01-3.43,1.05-5.25v-.82c-.04-1.79-.38-3.53-1.01-5.16-.68-1.76-1.65-3.34-2.9-4.68-1.26-1.35-2.79-2.44-4.55-3.24-1.77-.81-3.75-1.21-5.89-1.21s-4.16,.41-5.93,1.21c-1.77,.81-3.3,1.9-4.55,3.26-1.25,1.36-2.23,2.94-2.91,4.7-.69,1.76-1.04,3.66-1.04,5.65s.34,3.8,1.01,5.55c.67,1.76,1.65,3.33,2.9,4.68,1.25,1.35,2.77,2.44,4.52,3.24,1.77,.81,3.76,1.21,5.91,1.21s4.12-.41,5.91-1.23c.9-.4,1.74-.88,2.51-1.43l3.79,3.67,3.37-3.55,.12-.12-3.93-3.43Zm-2.38-8.59c0,1.39-.24,2.7-.7,3.9-.47,1.2-1.12,2.26-1.94,3.14-.82,.88-1.8,1.58-2.94,2.09-2.24,1.01-5.25,1-7.48-.02-1.15-.52-2.15-1.23-2.96-2.11-.82-.88-1.48-1.95-1.96-3.17-.48-1.23-.72-2.53-.72-3.99s.24-2.7,.7-3.9c.46-1.2,1.11-2.25,1.94-3.14,.81-.88,1.8-1.58,2.94-2.09,1.13-.51,2.43-.76,3.72-.76s2.62,.26,3.76,.77c1.14,.52,2.14,1.23,2.96,2.11,.82,.88,1.48,1.95,1.96,3.17,.48,1.24,.72,2.54,.72,3.99Z"></path></g></g></g></svg>