<svg xmlns="http://www.w3.org/2000/svg" xmlns:xlink="http://www.w3.org/1999/xlink" viewBox="0 0 100 105.14"><defs><style>.i{fill:url(#h);}.i,.j{opacity:.5;}.j{fill:url(#e);}.k{fill:url(#f);}.k,.l,.m{opacity:.8;}.n{fill:#f15b22;}.l{fill:url(#g);}.o{fill:#f79339;}.p{fill:none;}.m{fill:url(#d);}.q{fill:#fdc591;}</style><linearGradient id="d" x1="20.8" y1="20.77" x2="6.44" y2="27.95" gradientTransform="matrix(1, 0, 0, 1, 0, 0)" gradientUnits="userSpaceOnUse"><stop offset="0" stop-color="#f79339"></stop><stop offset="1" stop-color="#fdc591"></stop></linearGradient><linearGradient id="e" x1="34.75" y1="68.31" x2="24.45" y2="82.67" gradientTransform="matrix(1, 0, 0, 1, 0, 0)" gradientUnits="userSpaceOnUse"><stop offset="0" stop-color="#ee5b23"></stop><stop offset="1" stop-color="#f79339"></stop></linearGradient><linearGradient id="f" x1="79.18" y1="25.58" x2="95.29" y2="25.58" xlink:href="#d"></linearGradient><linearGradient id="g" x1="55.88" y1="76.81" x2="100" y2="76.81" gradientTransform="matrix(1, 0, 0, 1, 0, 0)" gradientUnits="userSpaceOnUse"><stop offset="0" stop-color="#ee5b23" stop-opacity=".5"></stop><stop offset="1" stop-color="#f79339"></stop></linearGradient><linearGradient id="h" x1="65.27" y1="69.37" x2="75.57" y2="82.79" xlink:href="#e"></linearGradient></defs><g id="a"></g><g id="b"><g id="c"><g><g><g><g><path class="q" d="M8.2,1.39c-2.54,5.59-3.42,16.49-3.42,22.57,0,11.02,2.22,18.55,9.41,25.8,6.76-10.12,6.64-20.78,6.64-20.78,0-11.37-3.03-22.98-12.63-27.59Z"></path><path class="m" d="M8.2,1.39c-2.54,5.59-3.42,16.49-3.42,22.57,0,11.02,2.22,18.55,9.41,25.8,6.76-10.12,6.64-20.78,6.64-20.78,0-11.37-3.03-22.98-12.63-27.59Z"></path><g><path class="p" d="M32.32,66.33c-.46-.6-.94-1.19-1.42-1.77,.53,.64,1.05,1.29,1.55,1.96-.05-.06-.08-.12-.13-.18Z"></path><polygon class="p" points="43.09 94.53 43.24 96.13 43.92 103.55 43.24 96.13 43.09 94.53"></polygon><path class="o" d="M43.09,94.53l-.16-1.79c-.84-9.18-4.27-17.91-9.78-25.3-.73-.98-1.47-1.95-2.25-2.88l-.03-.03h0c-3.79-4.1-16.68-14.76-16.68-14.76C9.94,54.77-.1,67.18,0,74.21l.23,.28c5.45,1.3,13.19,3.28,17.65,5,9.18,3.53,19.55,7.39,23.31,16.96,1.44,3.66,2.73,7.1,2.73,7.1l-.68-7.43-.15-1.6Z"></path><path class="j" d="M43.09,94.53l-.16-1.79c-.84-9.18-4.27-17.91-9.78-25.3-.73-.98-1.47-1.95-2.25-2.88l-.03-.03h0c-3.79-4.1-16.68-14.76-16.68-14.76C9.94,54.77-.1,67.18,0,74.21l.23,.28c5.45,1.3,13.19,3.28,17.65,5,9.18,3.53,19.55,7.39,23.31,16.96,1.44,3.66,2.73,7.1,2.73,7.1l-.68-7.43-.15-1.6Z"></path></g></g><g><path class="q" d="M91.8,1.39c2.54,5.59,3.49,16.49,3.49,22.57,0,11.02-2.28,18.55-9.48,25.8-6.76-10.12-6.64-20.78-6.64-20.78,0-11.37,3.03-22.98,12.63-27.59Z"></path><path class="k" d="M91.8,1.39c2.54,5.59,3.49,16.49,3.49,22.57,0,11.02-2.28,18.55-9.48,25.8-6.76-10.12-6.64-20.78-6.64-20.78,0-11.37,3.03-22.98,12.63-27.59Z"></path><g><path class="p" d="M67.68,66.33c.46-.6,.94-1.19,1.42-1.77-.53,.64-1.05,1.29-1.55,1.96,.05-.06,.08-.12,.13-.18Z"></path><polygon class="p" points="56.48 95.07 56.33 96.67 55.88 103.82 56.33 96.67 56.48 95.07"></polygon></g></g></g><g><path class="p" d="M67.68,66.33c.46-.6,.94-1.19,1.42-1.77-.53,.64-1.05,1.29-1.55,1.96,.05-.06,.08-.12,.13-.18Z"></path><polygon class="p" points="56.91 94.53 56.76 96.13 55.88 103.82 56.76 96.13 56.91 94.53"></polygon><g><path class="p" d="M33.99,68.58c1.51,2.08,2.93,4.22,4.19,6.45-1.26-2.23-2.68-4.37-4.19-6.45Z"></path><path class="o" d="M85.84,49.8c-.47,.39-12.92,10.71-16.64,14.73h0s-.02,.02-.03,.03c-.49,.58-.96,1.17-1.42,1.77-.05,.06-.08,.12-.13,.18-.82,1.07-1.61,2.16-2.38,3.26-4.57,6.92-7.35,14.86-8.11,23.12l-.15,1.63-.15,1.6-.95,7.7s2.11-4.1,3.72-7.68c3.85-8.53,11.34-14.25,20.91-17.79,5.41-2,13.8-3.12,19.22-3.87,.1-.11,.16-.18,.26-.29,.08-7.02-9.89-19.37-14.16-24.39Z"></path><path class="l" d="M85.84,49.8c-.47,.39-12.92,10.71-16.64,14.73h0s-.02,.02-.03,.03c-.49,.58-.96,1.17-1.42,1.77-.05,.06-.08,.12-.13,.18-.82,1.07-1.61,2.16-2.38,3.26-4.57,6.92-7.35,14.86-8.11,23.12l-.15,1.63-.15,1.6-.95,7.7s2.11-4.1,3.72-7.68c3.85-8.53,11.34-14.25,20.91-17.79,5.41-2,13.8-3.12,19.22-3.87,.1-.11,.16-.18,.26-.29,.08-7.02-9.89-19.37-14.16-24.39Z"></path><path class="i" d="M85.84,49.8c-.47,.39-12.92,10.71-16.64,14.73h0s-.02,.02-.03,.03c-.49,.58-.96,1.17-1.42,1.77-.05,.06-.08,.12-.13,.18-.82,1.07-1.61,2.16-2.38,3.26-4.57,6.92-7.35,14.86-8.11,23.12l-.15,1.63-.15,1.6-.95,7.7s2.11-4.1,3.72-7.68c3.85-8.53,11.34-14.25,20.91-17.79,5.41-2,13.8-3.12,19.22-3.87,.1-.11,.16-.18,.26-.29,.08-7.02-9.89-19.37-14.16-24.39Z"></path></g></g></g><path class="n" d="M91.88,1.39c-.22-.47-.43-.97-.65-1.39-13.52,4.54-23.95,15.65-27.7,29.5-.04,.14-.16,.23-.31,.21-1.2-.17-6.17-.76-13.18-.79-7.02,.02-11.98,.62-13.18,.79-.15,.02-.27-.07-.31-.21C32.79,15.65,22.36,4.54,8.85,0c-.22,.43-.43,.92-.65,1.39,9.6,4.61,12.63,16.22,12.63,27.59,0,0,.12,10.66-6.64,20.78,0,0,12.89,10.67,16.68,14.76h0s.02,.02,.03,.03c.49,.58,.96,1.17,1.42,1.77,.05,.06,.08,.12,.13,.18,5.76,7.57,9.56,16.21,10.43,25.68l.11,1.24,.1,1.09,.15,1.6,.68,7.43s2.09,1.46,6.11,1.59c4.02-.13,5.85-1.32,5.85-1.32l.95-7.7,.15-1.6,.15-1.63c.76-8.26,3.54-16.2,8.11-23.12,.77-1.1,1.56-2.19,2.38-3.26,.05-.06,.08-.12,.13-.18,.46-.6,.94-1.19,1.42-1.77,0-.01,.02-.02,.03-.03h0c3.72-4.02,16.17-14.34,16.64-14.73l.04-.04c-6.76-10.12-6.64-20.78-6.64-20.78,0-11.37,3.03-22.98,12.63-27.59ZM33.99,68.58c1.51,2.08,2.93,4.22,4.19,6.45-1.26-2.23-2.68-4.37-4.19-6.45Z"></path></g></g></g></svg>